<?xml version="1.0" encoding="UTF-8"?>
<svg width="1200px" height="1200px" viewBox="0 0 1200 1200" version="1.1" xmlns="http://www.w3.org/2000/svg" xmlns:xlink="http://www.w3.org/1999/xlink">
    <!-- Generator: Sketch 54.1 (76490) - https://sketchapp.com -->
    <title>编组 4</title>
    <desc>Created with Sketch.</desc>
    <defs>
        <linearGradient x1="-12.9418493%" y1="66.1392391%" x2="41.8337196%" y2="66.1392391%" id="linearGradient-1">
            <stop stop-color="#FFBFA2" offset="0%"></stop>
            <stop stop-color="#FFD0BA" offset="100%"></stop>
        </linearGradient>
        <linearGradient x1="48.495531%" y1="33.4825438%" x2="57.2833172%" y2="138.583101%" id="linearGradient-2">
            <stop stop-color="#263047" offset="0%"></stop>
            <stop stop-color="#3068E8" offset="100%"></stop>
        </linearGradient>
        <linearGradient x1="48.5589373%" y1="33.4825438%" x2="56.9763595%" y2="138.583101%" id="linearGradient-3">
            <stop stop-color="#253C6F" offset="0%"></stop>
            <stop stop-color="#3068E8" offset="100%"></stop>
        </linearGradient>
        <linearGradient x1="100%" y1="50%" x2="18.7699945%" y2="50%" id="linearGradient-4">
            <stop stop-color="#23A295" offset="0%"></stop>
            <stop stop-color="#5DD1C5" offset="100%"></stop>
        </linearGradient>
        <linearGradient x1="-12.9418493%" y1="66.1392391%" x2="41.8337196%" y2="66.1392391%" id="linearGradient-5">
            <stop stop-color="#FFBFA2" offset="0%"></stop>
            <stop stop-color="#FFD0BA" offset="100%"></stop>
        </linearGradient>
        <linearGradient x1="47.9364132%" y1="33.4825438%" x2="59.9900745%" y2="138.583101%" id="linearGradient-6">
            <stop stop-color="#253C6F" offset="0%"></stop>
            <stop stop-color="#3068E8" offset="100%"></stop>
        </linearGradient>
        <linearGradient x1="-0.0116387337%" y1="49.998368%" x2="100%" y2="49.998368%" id="linearGradient-7">
            <stop stop-color="#9094CA" offset="0%"></stop>
            <stop stop-color="#306EF3" offset="100%"></stop>
        </linearGradient>
        <linearGradient x1="-0.0116387337%" y1="49.998368%" x2="100%" y2="49.998368%" id="linearGradient-8">
            <stop stop-color="#9094CA" offset="0%"></stop>
            <stop stop-color="#306EF3" offset="100%"></stop>
        </linearGradient>
    </defs>
    <g id="操作台" stroke="none" stroke-width="1" fill="none" fill-rule="evenodd">
        <g id="画板" transform="translate(-3265.000000, -406.000000)">
            <g id="编组-4" transform="translate(3265.000000, 406.000000)">
                <rect id="矩形复制-2" x="0" y="0" width="1200" height="1200"></rect>
                <g id="编组-126" transform="translate(0.000000, 117.000000)" fill-rule="nonzero">
                    <g id="bg">
                        <g id="编组" transform="translate(0.000000, 0.095633)">
                            <polygon id="路径" fill="#FFEAE6" points="4.32710105 358.298138 68.4892762 358.298138 68.4892762 520.909021 104.848169 520.909021 104.848169 285.551005 220.340991 285.551005 220.340991 465.27926 284.503921 465.27926 284.503921 356.158561 425.662066 356.158561 425.662066 463.139683 586.069392 463.139683 586.069392 341.180765 663.064606 264.154478 663.064606 516.629867 748.614676 516.629867 748.614676 396.551389 797.805854 396.551389 797.805854 488.683151 873.243099 488.683151 873.243099 383.973063 944.948168 383.973063 944.948168 480.2563 1000.98821 480.2563 1000.98821 270.573209 1058.735 270.573209 1058.735 326.203725 1101.51004 326.203725 1101.51004 394.671704 1184.92139 394.671704 1184.92139 685.660236 0.0496730478 685.660236"></polygon>
                            <path d="M850.89233,510.511824 C850.89233,471.101146 818.956617,439.153301 779.562593,439.153301 C740.167813,439.153301 708.232856,471.101902 708.232856,510.511824 C708.232856,549.136027 738.908147,580.588264 777.215445,581.82804 L777.215445,652.326804 L785.522597,652.326804 L785.522597,581.621033 C822.126929,578.59072 850.89233,547.914382 850.89233,510.511824 Z" id="路径" fill="#F9CCC7"></path>
                            <path d="M611.2529,526.135573 C611.2529,491.066755 582.835644,462.638031 547.780974,462.638031 C512.726303,462.638031 484.309047,491.066755 484.309047,526.135573 C484.309047,560.504796 511.604838,588.491553 545.692103,589.595339 L545.692103,652.326804 L553.083957,652.326804 L553.083957,589.410242 C585.657055,586.714616 611.2529,559.416876 611.2529,526.135573 Z" id="路径" fill="#F9CCC7"></path>
                            <path d="M819.31458,321.680545 C821.229756,321.680545 821.232777,318.703117 819.31458,318.703117 C817.399404,318.703117 817.396383,321.680545 819.31458,321.680545 L819.31458,321.680545 Z" id="路径" fill="#F7E6DA"></path>
                            <path d="M827.129344,318.697073 C829.044521,318.697073 829.047541,315.719646 827.129344,315.719646 C825.214168,315.719646 825.211148,318.697073 827.129344,318.697073 L827.129344,318.697073 Z" id="路径" fill="#F7E6DA"></path>
                            <path d="M834.224407,316.43435 C836.139583,316.43435 836.142604,313.456923 834.224407,313.456923 C832.309231,313.456923 832.30621,316.43435 834.224407,316.43435 L834.224407,316.43435 Z" id="路径" fill="#F7E6DA"></path>
                            <path d="M842.449998,315.30261 C844.365174,315.30261 844.368195,312.325183 842.449998,312.325183 C840.534822,312.325183 840.531801,315.30261 842.449998,315.30261 L842.449998,315.30261 Z" id="路径" fill="#F7E6DA"></path>
                            <path d="M231.484657,69.1779579 C231.484657,55.025169 217.712155,43.55214 200.722519,43.55214 C200.432524,43.55214 200.146305,43.5634725 199.858575,43.570272 C192.88963,31.9000574 177.234425,23.7618072 159.025148,23.7618072 C158.1461,23.7618072 157.274605,23.7859832 156.408395,23.8230027 C148.88136,9.74047533 134.044787,0.155441816 116.966038,0.155441816 C92.2771831,0.155441816 72.2629887,20.1777133 72.2629887,44.8765322 C72.2629887,56.2309477 76.5003913,66.5896136 83.4693365,74.4770377 L230.822351,74.4770377 C231.253568,72.7673403 231.484657,70.9949364 231.484657,69.1779579 Z" id="路径" fill="#FFEAE6"></path>
                            <path d="M439.262384,114.576732 C439.262384,103.408925 420.974567,94.3557641 398.415363,94.3557641 C391.793053,94.3557641 385.545319,95.140729 380.013511,96.5255612 C375.983788,85.8087881 365.647425,78.1812561 353.52578,78.1812561 C342.221257,78.1812561 332.469416,84.8153051 327.937487,94.4018496 C306.630398,95.086333 289.773676,103.853915 289.773676,114.574466 C289.773676,117.450656 290.994828,120.184812 293.181119,122.662097 L435.857207,122.662097 C438.042743,120.184812 439.262384,117.451411 439.262384,114.576732 Z" id="路径" fill="#FFEAE6"></path>
                            <path d="M985.135903,149.350904 C985.135903,140.571234 999.513318,133.453665 1017.24833,133.453665 C1022.45465,133.453665 1027.36644,134.070909 1031.71486,135.159585 C1034.8829,126.734245 1043.00881,120.737838 1052.53862,120.737838 C1061.42577,120.737838 1069.09251,125.953057 1072.65552,133.489929 C1089.40652,134.028601 1102.65869,140.921031 1102.65869,149.349393 C1102.65869,151.610606 1101.69884,153.760005 1099.98001,155.707685 L987.813072,155.707685 C986.095002,153.760005 985.135903,151.611362 985.135903,149.350904 Z" id="路径" fill="#FFEAE6"></path>
                            <path d="M765.723633,31.7202483 C759.644309,14.2447687 743.043598,1.69817362 723.504422,1.69817362 C706.425673,1.69817362 691.5891,11.2824516 684.062065,25.3657345 C683.195856,25.328715 682.32436,25.304539 681.445312,25.304539 C663.236036,25.304539 647.581586,33.4435447 640.611885,45.1130038 C640.324156,45.1062043 640.037936,45.0948718 639.747941,45.0948718 C622.758305,45.0948718 608.985803,56.5679008 608.985803,70.7206897 C608.985803,72.5376682 609.216138,74.3093166 609.648109,76.0197695 L757.001879,76.0197695 C757.258646,75.7296574 757.503329,75.4289682 757.752544,75.1320565 C759.685089,75.5302053 761.700706,75.7462784 763.775984,75.7462784 C777.976682,75.7462784 789.488129,65.8749102 789.488129,53.6985103 C789.486619,42.0849583 779.012811,32.5754748 765.723633,31.7202483 Z" id="路径" fill="#FFEAE6"></path>
                            <path d="M1060.39266,465.289837 L1060.39266,464.390792 C1060.39266,464.390792 1060.29297,464.546425 1060.1087,464.838048 C1059.92444,464.546425 1059.82475,464.390792 1059.82475,464.390792 L1059.82475,465.289837 C1052.84825,476.44329 984.870075,588.360852 1052.70779,609.325988 L1052.70779,652.394799 L1068.24443,652.394799 L1068.24443,609.088005 C1134.84437,587.538112 1067.34348,476.402492 1060.39266,465.289837 Z" id="路径" fill="#F9CCC7"></path>
                            <path d="M1131.45808,465.289837 L1131.45808,464.390792 C1131.45808,464.390792 1131.35839,464.546425 1131.17412,464.838048 C1130.98985,464.546425 1130.89017,464.390792 1130.89017,464.390792 L1130.89017,465.289837 C1123.91367,476.44329 1055.93625,588.360852 1123.77396,609.325988 L1123.77396,652.394799 L1139.3106,652.394799 L1139.3106,609.088005 C1205.90979,587.538112 1138.40965,476.402492 1131.45808,465.289837 Z" id="路径" fill="#F9CCC7"></path>
                            <path d="M671.728966,563.772336 L671.728966,563.346233 C671.728966,563.346233 671.681388,563.420273 671.594541,563.557774 C671.507693,563.419517 671.460116,563.346233 671.460116,563.346233 L671.460116,563.772336 C668.15538,569.054794 635.95837,622.06448 668.089678,631.995532 L668.089678,652.394799 L675.449059,652.394799 L675.449059,631.882963 C706.992825,621.675397 675.021618,569.035907 671.728966,563.772336 Z" id="路径" fill="#F9CCC7"></path>
                            <path d="M92.7861849,504.485953 L92.7861849,503.775027 C92.7861849,503.775027 92.7068894,503.898174 92.5618918,504.128601 C92.4168943,503.898174 92.3375987,503.775027 92.3375987,503.775027 L92.3375987,504.485953 C86.8224051,513.302643 33.0857055,601.774761 86.7121465,618.348173 L86.7121465,652.394799 L98.9938929,652.394799 L98.9938929,618.160809 C151.6416,601.125031 98.2809883,513.270912 92.7861849,504.485953 Z" id="路径" fill="#F9CCC7"></path>
                            <polygon id="路径" fill="#F9CCC7" points="609.916204 650.53929 638.011747 650.53929 623.966618 626.324746"></polygon>
                            <polygon id="路径" fill="#F9CCC7" points="624.612311 650.53929 652.707098 650.53929 638.66197 626.324746"></polygon>
                            <polygon id="路径" fill="#F9CCC7" points="983.09763 648.491128 1024.9619 648.491128 1004.03316 612.409185"></polygon>
                            <polygon id="路径" fill="#F9CCC7" points="91.7591189 648.491128 133.623388 648.491128 112.695407 612.409185"></polygon>
                            <g transform="translate(645.448539, 845.404942)" fill="#F9CCC7" id="矩形">
                                <rect x="13.3711124" y="0.232502856" width="5.01223334" height="33.7293151"></rect>
                                <rect x="23.0043877" y="14.6882474" width="5.01223334" height="19.2743261"></rect>
                                <rect x="0.125736378" y="14.6882474" width="5.01223334" height="19.2743261"></rect>
                            </g>
                            <g transform="translate(70.744672, 740.670114)" fill="#F9CCC7" id="矩形">
                                <rect x="13.4239761" y="0.094810518" width="5.01223334" height="33.7293151"></rect>
                                <rect x="23.0572514" y="14.5497996" width="5.01223334" height="19.2743261"></rect>
                                <rect x="0.178600072" y="14.5497996" width="5.01223334" height="19.2743261"></rect>
                            </g>
                            <g transform="translate(224.245352, 990.461018)" fill="#F9CCC7" id="矩形">
                                <rect x="13.3163644" y="0.231747355" width="5.01223334" height="33.7293151"></rect>
                                <rect x="22.9496397" y="14.6867364" width="5.01223334" height="19.2743261"></rect>
                                <rect x="0.0709883884" y="14.6867364" width="5.01223334" height="19.2743261"></rect>
                            </g>
                            <g transform="translate(1051.939753, 717.725376)" fill="#F9CCC7" id="矩形">
                                <rect x="13.4794866" y="0.170551823" width="5.01223334" height="33.7293151"></rect>
                                <rect x="23.112762" y="14.6255409" width="5.01223334" height="19.2743261"></rect>
                                <rect x="0.234110643" y="14.6255409" width="5.01223334" height="19.2743261"></rect>
                            </g>
                            <g transform="translate(1052.219366, 1006.802301)" fill="#F9CCC7" id="矩形">
                                <rect x="13.2950283" y="0.225139118" width="5.01223334" height="33.7293151"></rect>
                                <rect x="22.9283036" y="14.6808837" width="5.01223334" height="19.2743261"></rect>
                                <rect x="0.0496522657" y="14.6808837" width="5.01223334" height="19.2743261"></rect>
                            </g>
                        </g>
                    </g>
                    <g id="编组" transform="translate(218.000000, 313.000000)">
                        <path d="M326.545737,24.6397803 C316.330175,25.0751824 300.318549,30.8079765 290.030535,36.5407707 C279.814973,42.2735649 272.787246,41.4753277 267.498337,52.9409161 L302.347171,125.217663 C302.347171,125.217663 305.607457,137.916891 317.924092,135.449612 C320.822124,115.711384 328.57436,105.044033 328.57436,105.044033 C338.934824,112.010466 345.8901,108.236981 349.005484,103.955528 C352.048418,100.762579 353.497434,90.5306298 356.540367,89.8049597 C356.540367,89.8049597 356.540367,89.8049597 356.540367,89.8049597 C359.728202,89.2969906 362.626234,87.7005162 363.423193,85.5235058 L363.423193,85.5235058 C363.423193,85.5235058 363.423193,85.5235058 363.423193,85.5235058 C363.423193,85.4509388 363.495644,85.3783718 363.495644,85.2332377 C363.495644,85.3058047 363.423193,85.3783718 363.423193,85.4509388 C363.640545,84.7252686 363.640545,83.8544644 363.350742,82.9836603 C361.974177,79.4278765 361.032317,75.6543918 360.235358,70.5021337 C360.525161,62.011793 365.162012,56.2789988 361.901726,49.1674313 L364.872209,47.716091 C360.307809,41.4753277 335.89189,24.2769452 326.545737,24.6397803 Z" id="路径" fill="url(#linearGradient-1)"></path>
                        <path d="M580.193069,639.520407 C537.5847,631.321105 61.9361732,632.844869 37.3711441,634.586314 C-77.4105846,642.785616 89.83451,667.456083 299.760437,670.721291 C509.6139,673.9865 622.511585,647.647149 580.193069,639.520407 Z" id="路径" fill="#BCE4EE"></path>
                        <ellipse id="椭圆形" fill="#58A0B8" transform="translate(76.864753, 620.743328) rotate(-9.218364) translate(-76.864753, -620.743328) " cx="76.8647533" cy="620.743328" rx="12.3176473" ry="12.325995"></ellipse>
                        <path d="M178.427254,602.91077 C177.122142,611.32915 182.850132,612.345161 187.925567,608.063399 C193.001002,603.709065 230.486712,551.602196 242.595249,536.652314 L206.9947,524.315033 C206.9947,524.242461 179.732365,594.419818 178.427254,602.91077 Z" id="路径" fill="#F4AD8C"></path>
                        <path d="M190.209682,621.873959 C190.209682,621.873959 189.774877,615.629833 186.586309,608.732253 C180.57151,609.458314 178.687356,604.375887 178.687356,604.375887 C178.687356,604.375887 172.02035,607.207525 169.556456,608.22401 C167.092563,609.240496 148.613361,619.9862 148.106088,621.438322 C147.598816,622.96305 149.120633,627.101599 158.03413,633.926573 C166.947628,640.751547 197.094091,654.619314 201.659541,656.216648 C206.224991,657.813983 213.109399,655.272769 212.312257,653.602828 C211.442648,652.005494 190.209682,621.873959 190.209682,621.873959 Z" id="路径" fill="#28265D"></path>
                        <path d="M202.614561,421.741822 C199.880368,425.603774 198.297414,427.789784 193.908314,433.254809 L205.852422,445.933667 C217.868483,425.020838 205.348755,417.879871 202.614561,421.741822 Z" id="路径" fill="#28265D"></path>
                        <path d="M426.554954,530.193575 L397.609976,554.237367 C397.609976,554.237367 443.487765,613.767478 450.000385,619.271478 C456.585368,624.703058 460.348215,620.357794 459.262778,613.839899 C458.249704,607.249583 433.139936,548.226419 426.554954,530.193575 Z" id="路径" fill="#FFD0BA"></path>
                        <path d="M255.704219,387.558906 C254.544684,487.068621 182.436105,523.16173 182.436105,523.16173 C182.436105,523.16173 189.755669,562.008931 242.731922,566.864831 C263.023783,487.64843 317.304513,402.05413 317.304513,402.05413 L263.893435,347.11723 C263.893435,347.11723 256.283986,365.743593 255.704219,387.558906 Z" id="路径" fill="url(#linearGradient-2)"></path>
                        <path d="M407.995382,466.736294 C392.125171,425.201577 377.55936,371.054225 368.28362,342.567063 C359.00788,314.152388 352.123541,309.223312 352.051075,285.955173 C328.934191,262.75952 271.250682,282.330852 271.250682,282.330852 C271.250682,282.330852 254.873203,306.541315 260.598074,338.217879 C266.467879,370.54682 291.17903,389.103342 295.019766,396.207011 C297.193768,400.193764 346.253737,433.102597 365.819751,477.029365 C382.487097,514.504842 385.095899,552.487723 370.819955,573.436298 C451.692814,580.539966 438.503871,531.756609 438.503871,531.756609 C438.503871,531.756609 423.865594,508.343496 407.995382,466.736294 Z" id="路径" fill="url(#linearGradient-3)"></path>
                        <path d="M148.858907,648.335856 C148.858907,648.335856 154.801957,652.106064 166.180724,631.442425 C177.55949,610.778787 305.552494,377.678443 305.552494,377.678443 L299.392015,374.270755 L148.858907,648.335856 Z" id="路径" fill="#CECECF"></path>
                        <path d="M366.635531,269.383173 C356.492455,260.900491 330.048007,256.260392 310.051658,245.602664 C290.127758,234.944936 267.160937,228.12979 260.350586,223.41719 C268.537497,212.759461 271.797771,202.39174 271.797771,202.39174 L238.035818,208.989381 C238.035818,208.989381 230.28361,223.344688 230.28361,232.33488 C230.28361,241.325073 241.223642,246.690187 261.147542,252.41781 C281.071441,258.145433 309.544504,257.347915 328.091843,265.830597 C346.639182,274.313278 349.682104,282.79596 355.115895,285.551019 C360.549686,288.306078 366.345729,289.103595 363.013004,287.436059 C359.75273,285.768523 360.549686,283.085966 358.086367,281.41843 C355.623049,279.750895 364.896718,283.303471 366.852883,284.971006 C368.736597,286.638542 368.736597,289.321099 369.606003,290.408623 C370.402959,291.496146 371.272366,286.856047 370.692762,284.100988 C371.489718,285.986028 373.953036,284.681 372.576476,280.838418 C371.199915,276.995836 376.778607,277.865854 366.635531,269.383173 Z" id="路径" fill="#F4AD8C"></path>
                        <path d="M310.4909,127.610566 C310.4909,127.610566 270.701005,119.416164 271.933114,198.604541 C271.933114,198.604541 276.426691,246.17558 271.135867,282.288961 C316.216586,304.841695 351.947767,285.987319 351.947767,285.987319 C351.947767,285.987319 349.91841,249.873939 351.947767,238.41628 C353.977124,226.958621 358.905563,222.390061 362.601892,208.031728 C366.298221,193.673396 351.947767,176.849492 339.62667,160.025588 C327.305573,143.201684 310.4909,127.610566 310.4909,127.610566 Z" id="路径" fill="url(#linearGradient-4)"></path>
                        <path d="M320.108632,231.648577 C320.907981,208.659569 322.870019,163.841881 321.998002,146.872077 C321.70733,141.142955 306.955712,125.260959 289.079369,154.776815 C287.262667,164.929689 289.878717,204.018255 293.221448,235.202083 C296.491511,266.385911 311.751805,328.318444 307.173717,357.90682 C306.592372,361.532847 301.941616,360.807641 297.29086,364.578709 C292.640104,368.422297 292.058759,376.327035 291.25941,380.750787 C290.460062,385.102019 291.550083,386.479909 296.491511,380.170623 C299.761574,376.036953 304.921007,378.647692 301.723612,384.521855 C297.726868,391.918949 294.529473,398.300756 292.640104,400.693933 C290.750734,403.159631 297.6542,401.709221 299.834242,399.533605 C302.595629,400.331331 306.66504,396.777825 306.66504,396.777825 C306.66504,396.777825 311.606469,396.19766 315.167204,390.758621 C318.727939,385.319581 317.637918,381.766075 320.617309,364.796271 C323.669367,347.826467 324.032708,311.856283 322.797351,287.634426 C321.779998,265.878267 319.309284,254.637585 320.108632,231.648577 Z" id="路径" fill="url(#linearGradient-5)"></path>
                        <path d="M321.999179,1.13814536 C287.721656,-6.6949789 267.865331,26.9584439 255.980524,69.6779827 C244.095717,112.324993 221.824764,89.2542743 193.634581,132.626574 C183.330814,148.509045 199.812015,169.281907 202.349742,186.943882 C204.887468,204.605857 177.282872,220.220456 182.180371,232.789683 C191.409067,256.47475 202.020242,255.217697 219.033048,260.944986 C236.393206,266.789209 254.008094,271.332583 271.075005,239.018733 C279.698737,250.115659 316.708991,179.196665 314.679877,178.398846 C312.650764,177.601028 306.925765,177.963673 302.36026,162.805127 C297.867223,147.646581 334.318796,110.294183 308.520069,81.9353716 C289.678301,63.8756684 310.18684,45.8159652 319.172914,63.4404948 C319.172914,63.4404948 318.738104,69.6054538 318.375762,75.3352391 C317.940952,81.0650244 326.564684,75.3352391 329.463418,54.8095524 C329.463418,54.8095524 336.855188,54.3743788 343.014997,45.3807917 L345.47892,50.7479324 C345.47892,50.7479324 359.392841,57.3480649 372.147268,47.4841306 C364.175751,37.2575517 372.364673,12.597716 321.999179,1.13814536 Z" id="路径" fill="url(#linearGradient-6)"></path>
                        <path d="M310.170557,61.4635686 C305.124203,60.211015 303.807763,66.842181 304.68539,65.7369866 C307.610812,62.1266852 312.949708,66.4001032 313.90047,67.800016 C315.582588,70.3051232 315.143775,62.7161221 310.170557,61.4635686 Z" id="路径" fill="#D58A56"></path>
                        <path d="M309.835954,73.0401525 C310.63611,77.2430785 315.437047,80.1187648 314.345925,72.5977392 C314.054959,70.8280861 309.035798,68.8372264 309.835954,73.0401525 Z" id="路径" fill="#A8512A"></path>
                        <path d="M510.992128,616.805953 C509.179593,616.588411 472.421401,619.271426 472.421401,619.271426 C472.421401,619.271426 466.911297,616.370869 459.298653,615.573217 C456.833607,621.084273 451.541007,620.069078 451.541007,620.069078 C451.541007,620.069078 450.525988,627.247955 450.09098,629.930969 C449.655971,632.613984 449.293465,653.933071 450.308484,655.165807 C451.323503,656.398544 455.673585,657.196197 466.113782,653.135418 C476.553979,649.002126 504.031996,630.366053 507.729566,627.320469 C511.354634,624.202371 512.804662,617.023495 510.992128,616.805953 Z" id="路径" fill="#28265D"></path>
                        <path d="M205.962579,438.915581 C183.5617,417.022819 157.826063,412.093323 147.966776,421.952315 C138.10749,431.811308 132.235415,445.5849 128.248203,449.861963 C83.3739513,497.417102 49.4464068,590.497589 52.2012075,595.862041 C74.6020861,638.487685 142.964638,647.911721 144.632018,646.171899 C188.926312,599.704148 222.853856,511.62565 228.290963,493.067547 C233.800564,474.509444 228.363457,460.808344 205.962579,438.915581 Z" id="路径" fill="url(#linearGradient-7)"></path>
                        <path d="M111.960095,536.911973 C111.960095,536.911973 64.6836421,587.721541 55.4023753,601.203109 C80.4182898,639.400886 147.779984,650.345601 149.012652,648.388599 C158.07639,634.037252 177.364022,604.319816 190.270784,580.473385 C131.175218,576.849308 111.960095,536.911973 111.960095,536.911973 Z" id="路径" fill="#28265D"></path>
                        <path d="M140.367045,431.112733 C134.861201,438.939261 131.0216,446.838256 128.196232,449.881905 C83.3525846,497.420813 49.4481788,590.469527 52.2011007,595.832148 C56.4029288,603.803611 62.1985537,610.615589 68.8635223,616.413016 C75.0213738,606.774793 115.156076,543.655299 148.408474,484.304132 C182.602661,423.14127 155.000998,417.996053 140.367045,431.112733 Z" id="路径" fill="#BFB8DB"></path>
                        <path d="M52.2096223,595.824285 C56.4054196,603.798793 62.1927264,610.613374 68.8481291,616.413016 C72.9715851,609.888418 92.5760867,579.150312 115.0019,541.597625 C101.112364,525.431121 92.9377933,509.04713 90.261164,503.319983 C65.8097931,546.817304 50.2564063,592.199508 52.2096223,595.824285 Z" id="路径" fill="url(#linearGradient-8)"></path>
                        <ellipse id="椭圆形" fill="#28265D" cx="95.6950119" cy="642.166875" rx="12.311639" ry="12.317063"></ellipse>
                        <path d="M201.640985,432.99453 C200.193495,443.300221 190.929563,490.982185 135.707838,573.064834 L139.760809,575.822695 C203.305598,481.329671 206.779572,431.6156 206.779572,431.180148 L201.858108,430.817272 C201.858108,430.889847 201.858108,431.543024 201.640985,432.99453 Z" id="路径" fill="#28265D"></path>
                    </g>
                </g>
            </g>
        </g>
    </g>
</svg>